<svg width="144" height="43" viewBox="0 0 144 43" xmlns="http://www.w3.org/2000/svg" xmlns:xlink="http://www.w3.org/1999/xlink">
 <title>
  Fill 1
 </title>
 <desc>
  Created with Sketch.
 </desc>
 <path d="M123.671 14.173c0-6.126 4.631-10.955 11.079-10.955 3.874 0 7.325 1.961 9.111 5.04l-3.027 1.75c-1.12-2.082-3.421-3.41-6.084-3.41-4.571 0-7.598 3.229-7.598 7.575 0 4.345 3.027 7.575 7.598 7.575 2.664 0 4.994-1.328 6.084-3.41l3.027 1.72c-1.756 3.078-5.207 5.07-9.111 5.07-6.448 0-11.079-4.828-11.079-10.955zm-41.649 0c0-6.126 4.632-10.955 11.079-10.955 3.874 0 7.326 1.961 9.111 5.04l-3.027 1.75c-1.12-2.082-3.42-3.41-6.084-3.41-4.57 0-7.598 3.229-7.598 7.575 0 4.345 3.027 7.575 7.598 7.575 2.664 0 4.995-1.328 6.084-3.41l3.027 1.72c-1.756 3.078-5.207 5.07-9.111 5.07-6.447 0-11.079-4.828-11.079-10.955zm-5.599 0c0-4.346-3.269-7.575-7.507-7.575-4.238 0-7.507 3.229-7.507 7.575 0 4.345 3.269 7.575 7.507 7.575 4.238 0 7.507-3.23 7.507-7.575zm-18.495 0c0-6.126 4.874-10.955 10.988-10.955 6.145 0 10.988 4.828 10.988 10.955 0 6.126-4.843 10.955-10.988 10.955-6.114 0-10.988-4.828-10.988-10.955zm57.361 6.609l-5.207-5.583c-1.634.815-2.24 2.203-2.24 3.471 0 1.932 1.392 3.229 3.935 3.229 1.392 0 2.543-.393 3.511-1.117zm3.949 4.217l-1.739-1.863c-1.513 1.207-3.451 1.992-5.903 1.992-4.238 0-7.265-2.324-7.265-6.186 0-2.475 1.271-4.738 3.723-6.066-.727-.996-1.211-2.143-1.211-3.682 0-3.622 2.875-5.975 6.447-5.975 2.846 0 5.388 1.539 6.538 4.406l-2.966 1.69c-.576-1.69-1.877-2.716-3.542-2.716-1.665 0-2.997 1.057-2.997 2.686 0 1.358.817 2.294 1.816 3.38l5.207 5.625c.306-.566.81-1.731.939-3.216l3.254-.127c-.141 1.22-.486 3.323-1.954 5.745l3.979 4.308h-4.328zm23.449 8.927c-.104-.168-.25-.306-.438-.412-.188-.107-.399-.16-.633-.16l-.311.034c-.104.023-.196.058-.278.107-.081.049-.146.11-.194.184-.049.074-.073.167-.073.276 0 .194.088.338.263.432.175.094.438.18.789.257.221.052.425.113.614.184.188.071.352.16.491.267.139.107.248.234.326.383.078.149.117.324.117.524 0 .272-.052.502-.156.689-.104.188-.242.341-.414.461s-.368.206-.589.257c-.221.052-.448.078-.681.078-.351 0-.693-.068-1.027-.204-.334-.136-.612-.343-.832-.621l.652-.553c.123.181.294.333.511.456.217.123.456.185.715.185.117 0 .229-.011.336-.034.107-.022.204-.06.292-.111.087-.052.157-.12.209-.204.052-.084.078-.191.078-.32 0-.213-.102-.372-.307-.475-.205-.103-.505-.2-.901-.291l-.472-.14c-.159-.055-.304-.131-.433-.228-.13-.097-.235-.218-.316-.364-.081-.146-.121-.325-.121-.539 0-.246.05-.457.151-.636.101-.178.232-.324.394-.437.162-.113.347-.197.555-.252.207-.055.422-.083.642-.083.331 0 .651.065.959.194.308.129.547.317.715.563l-.632.534zm-3.436-.417h-1.227v2.39c0 .277.052.476.156.595.104.119.269.179.496.179l.272-.026.263-.08.029.748c-.11.038-.232.069-.365.092-.133.023-.271.034-.414.034-.435 0-.767-.12-.998-.359-.23-.24-.345-.599-.345-1.077v-2.494h-.886v-.747h.886v-1.32h.905v1.32h1.227v.747zm-6.755-.747l.029.393.01.364h.029c.058-.123.138-.238.239-.345.101-.106.216-.2.345-.281.13-.081.273-.144.428-.189.156-.045.318-.068.487-.068.298 0 .554.05.769.15.214.1.392.235.535.403.143.169.248.366.316.592.068.227.102.47.102.728v2.853h-.915v-2.552c0-.188-.015-.365-.044-.534-.029-.168-.083-.317-.161-.446s-.185-.233-.321-.311c-.136-.078-.311-.117-.526-.117-.363 0-.661.138-.891.413-.23.275-.345.642-.345 1.101v2.445h-.915v-3.61l-.009-.475-.029-.514h.866zm-2.774 2.407c-.227 0-.462.01-.706.029-.243.02-.464.058-.662.117-.198.058-.362.146-.492.262-.13.117-.194.272-.194.466 0 .136.027.249.083.339.055.091.128.165.219.223.091.058.191.098.302.121.111.023.224.034.341.034.428 0 .758-.128.988-.383.23-.256.345-.577.345-.966v-.243h-.224zm.224-.786c0-.343-.104-.597-.312-.762-.208-.165-.483-.248-.827-.248-.259 0-.504.05-.735.151-.231.1-.424.228-.579.384l-.487-.582c.227-.214.504-.382.832-.505.328-.123.68-.184 1.056-.184.331 0 .618.047.862.141.243.094.443.222.599.383.155.162.272.353.35.573.078.22.117.456.117.708v2.009l.015.49c.01.172.027.312.054.422h-.827c-.052-.22-.078-.44-.078-.66h-.029c-.169.246-.382.437-.638.573-.256.136-.56.204-.91.204-.182 0-.371-.024-.569-.073-.198-.048-.378-.128-.541-.238-.162-.11-.297-.256-.404-.437-.107-.181-.161-.404-.161-.67 0-.349.094-.626.282-.829.188-.204.435-.359.74-.466.305-.107.649-.176 1.032-.208s.769-.049 1.158-.049v-.126zm-3.719-.874h-1.226v2.39c0 .277.052.476.155.595.104.119.27.179.497.179l.272-.026.263-.08.029.748c-.11.038-.232.069-.365.092-.133.023-.271.034-.414.034-.435 0-.767-.12-.998-.359-.231-.24-.346-.599-.346-1.077v-2.494h-.886v-.747h.886v-1.32h.905v1.32h1.226v.747zm-4.672 3.853h.915v-7.337h-.915v7.337zm-1.704 0l-.029-.393-.01-.364h-.019c-.117.246-.313.454-.589.626-.276.172-.583.258-.92.258-.298 0-.556-.049-.774-.146-.218-.097-.396-.231-.535-.403-.14-.172-.243-.37-.312-.597-.068-.226-.102-.469-.102-.728v-2.853h.915v2.543c0 .188.015.367.044.539.029.172.083.322.161.451s.185.233.321.311c.136.077.311.117.526.117.37 0 .668-.138.896-.413.227-.275.341-.642.341-1.101v-2.446h.915v3.61l.009.475.029.514h-.866zm-4.691-3.435c-.104-.168-.25-.306-.438-.412-.188-.107-.399-.16-.633-.16l-.312.034c-.104.023-.196.058-.277.107-.081.049-.146.11-.195.184-.049.074-.073.167-.073.276 0 .194.088.338.263.432.175.094.438.18.788.257.221.052.425.113.614.184.188.071.352.16.491.267.14.107.248.234.326.383.078.149.117.324.117.524 0 .272-.052.502-.156.689-.103.188-.242.341-.414.461s-.368.206-.589.257c-.221.052-.448.078-.681.078-.351 0-.693-.068-1.027-.204-.334-.136-.611-.343-.832-.621l.652-.553c.123.181.294.333.511.456.217.123.456.185.715.185.117 0 .229-.011.336-.034.107-.022.204-.06.292-.111.088-.052.157-.12.209-.204.052-.084.078-.191.078-.32 0-.213-.102-.372-.307-.475-.205-.103-.505-.2-.901-.291l-.472-.14c-.159-.055-.303-.131-.433-.228s-.235-.218-.316-.364c-.081-.146-.122-.325-.122-.539 0-.246.05-.457.151-.636.101-.178.232-.324.394-.437.162-.113.347-.197.555-.252.208-.055.422-.083.642-.083.331 0 .65.065.959.194.308.129.546.317.715.563l-.632.534zm-6.941-1.164l.029.393.01.364h.029c.058-.123.138-.238.239-.345.101-.106.216-.2.345-.281.13-.081.273-.144.428-.189.156-.045.318-.068.487-.068.298 0 .554.05.769.15.214.1.393.235.535.403.143.169.248.366.316.592.068.227.102.47.102.728v2.853h-.915v-2.552c0-.188-.015-.365-.044-.534-.029-.168-.083-.317-.161-.446s-.185-.233-.321-.311c-.136-.078-.311-.117-.525-.117-.364 0-.661.138-.891.413-.23.275-.345.642-.345 1.101v2.445h-.915v-3.61l-.009-.475-.029-.514h.866zm-2.463 2.295c0-.22-.034-.429-.102-.629-.069-.2-.168-.376-.298-.527-.13-.152-.291-.273-.483-.363-.192-.091-.412-.136-.659-.136-.247 0-.467.045-.659.136-.192.091-.353.211-.483.363-.13.151-.23.327-.298.527-.069.2-.103.41-.103.629 0 .22.034.429.103.629.068.2.167.378.298.533.13.155.291.277.483.368.192.091.411.136.659.136.247 0 .467-.045.659-.136.192-.091.353-.213.483-.368s.23-.332.298-.533c.068-.2.102-.409.102-.629zm.954-.005c0 .356-.064.682-.19.98-.127.298-.302.555-.526.772-.224.217-.488.385-.793.505-.305.12-.633.18-.983.18s-.678-.06-.983-.18c-.305-.12-.568-.287-.789-.505-.221-.217-.394-.474-.521-.772-.127-.298-.19-.624-.19-.98s.063-.681.19-.975c.126-.294.3-.548.521-.762.221-.214.483-.38.789-.5.305-.12.633-.18.983-.18.351 0 .678.06.983.18.305.12.569.286.793.5.224.214.399.467.526.762.126.294.19.62.19.975zm-6.006-1.126c-.097-.149-.243-.273-.438-.373-.195-.1-.403-.151-.623-.151-.24 0-.453.045-.638.136-.185.091-.343.212-.472.364-.13.152-.229.328-.297.528-.069.201-.102.411-.102.631 0 .22.034.43.102.631.068.2.167.377.297.529.13.152.289.273.477.364.188.091.402.136.642.136.234 0 .446-.045.638-.136.191-.091.349-.213.472-.369l.614.553c-.195.227-.438.403-.73.529s-.623.189-.993.189c-.357 0-.686-.058-.988-.175-.302-.117-.563-.28-.784-.49-.221-.21-.394-.464-.521-.762s-.19-.631-.19-.999c0-.362.062-.693.185-.99.123-.297.295-.553.516-.767.221-.213.482-.378.784-.495.302-.117.628-.175.978-.175.325 0 .648.065.969.194.321.129.576.317.764.563l-.662.534zm-8.624 2.446h.019l1.275-3.61h.974l-2.239 5.687c-.078.194-.162.367-.253.519-.091.152-.198.282-.321.388-.123.107-.267.189-.433.248-.166.058-.362.087-.589.087l-.297-.015-.307-.053.088-.805c.155.051.308.077.458.077.24 0 .418-.066.535-.199.117-.132.224-.322.321-.568l.292-.767-1.976-4.6h1.022l1.431 3.61zm-6.979-1.359c0 .213.034.417.103.611.068.194.169.365.303.514.134.149.295.268.483.359.189.091.403.136.644.136.234 0 .449-.042.645-.126.195-.084.361-.199.498-.345.137-.146.242-.317.317-.514.075-.197.113-.409.113-.636 0-.22-.038-.427-.113-.621-.075-.194-.182-.366-.322-.514-.14-.149-.306-.267-.498-.354-.192-.087-.405-.131-.64-.131-.241 0-.455.044-.644.131-.189.087-.35.204-.483.35-.134.146-.234.317-.303.514-.069.198-.103.406-.103.626zm-.272 3.134c.201.226.453.408.754.543.302.136.611.204.929.204.305 0 .561-.044.769-.131.207-.087.375-.207.501-.359.127-.152.217-.332.272-.539.055-.207.083-.43.083-.669v-.592h-.019c-.169.259-.399.456-.691.592-.292.136-.603.204-.934.204-.351 0-.67-.062-.959-.185-.289-.123-.534-.291-.735-.505-.201-.214-.357-.464-.467-.752-.11-.288-.166-.596-.166-.927 0-.33.055-.64.166-.932.11-.291.266-.545.467-.762.201-.217.444-.388.73-.515.286-.126.604-.189.954-.189.331 0 .647.071.949.214.302.143.541.359.716.65h.019v-.738h.886v4.367c0 .336-.042.658-.127.966-.084.307-.227.579-.428.815-.201.236-.464.425-.789.568-.325.142-.727.214-1.207.214-.402 0-.806-.073-1.212-.218-.406-.146-.754-.351-1.047-.616l.584-.708zm-2.219-3.493c-.007-.181-.037-.351-.093-.51-.055-.158-.136-.296-.243-.412-.107-.117-.24-.209-.399-.277-.159-.068-.346-.102-.56-.102-.194 0-.378.034-.55.102-.172.068-.321.16-.448.277-.127.117-.231.254-.311.412-.082.158-.129.328-.142.51h2.745zm.934.369v.155l-.009.155h-3.67c.007.192.05.374.131.544.081.17.19.318.326.443.136.126.294.223.472.294.178.07.368.106.569.106.311 0 .581-.068.808-.204.227-.136.406-.301.535-.495l.642.514c-.247.326-.537.566-.871.721-.334.154-.705.231-1.114.231-.35 0-.675-.058-.974-.175-.298-.117-.555-.28-.769-.49-.214-.21-.383-.464-.506-.762s-.185-.627-.185-.99c0-.356.06-.684.18-.985.12-.301.288-.558.503-.772.215-.214.468-.38.761-.5s.608-.18.946-.18c.338 0 .645.055.922.165.276.11.51.268.702.475.192.207.34.458.444.752.104.295.156.626.156.995zm-5.061-1.514h-1.227v2.39c0 .277.052.476.156.595.104.119.269.179.496.179l.273-.026.263-.08.029.748c-.11.038-.232.069-.365.092-.133.023-.271.034-.414.034-.435 0-.767-.12-.998-.359-.23-.24-.345-.599-.345-1.077v-2.494h-.886v-.747h.886v-1.32h.905v1.32h1.227v.747zm-4.546 1.659c-.227 0-.462.01-.706.029-.243.02-.464.058-.662.117-.198.058-.362.146-.492.262-.13.117-.195.272-.195.466 0 .136.027.249.083.339.055.091.128.165.219.223.091.058.191.098.302.121.111.023.224.034.341.034.428 0 .758-.128.988-.383.23-.256.345-.577.345-.966v-.243h-.224zm.224-.786c0-.343-.104-.597-.312-.762-.208-.165-.483-.248-.827-.248-.26 0-.505.05-.735.151-.231.1-.424.228-.579.384l-.487-.582c.227-.214.504-.382.832-.505.328-.123.68-.184 1.056-.184.331 0 .618.047.862.141.243.094.443.222.599.383.155.162.272.353.35.573.078.22.117.456.117.708v2.009l.015.49c.01.172.028.312.054.422h-.827c-.052-.22-.078-.44-.078-.66h-.029c-.169.246-.381.437-.638.573-.256.136-.56.204-.91.204-.182 0-.371-.024-.569-.073-.198-.048-.378-.128-.54-.238-.162-.11-.297-.256-.404-.437-.107-.181-.16-.404-.16-.67 0-.349.094-.626.282-.829.188-.204.435-.359.74-.466.305-.107.649-.176 1.032-.208s.769-.049 1.158-.049v-.126zm-6.182-1.107l-.029-.514h.866l.029.403.01.373h.029c.13-.272.319-.49.569-.655.249-.165.53-.248.842-.248.143 0 .263.013.36.039l-.039.844c-.13-.032-.269-.049-.419-.049-.22 0-.412.041-.574.121-.162.081-.297.189-.404.325-.107.136-.186.293-.239.471-.052.178-.078.364-.078.558v2.416h-.915v-3.61l-.01-.475zm-.788.233h-1.227v2.39c0 .277.052.476.156.595.104.119.269.179.496.179l.273-.026.263-.08.029.748-.365.092c-.133.023-.271.034-.414.034-.435 0-.767-.12-.998-.359-.23-.24-.345-.599-.345-1.077v-2.494h-.886v-.747h.886v-1.32h.905v1.32h1.227v.747zm-4.166-1.747c-.136-.188-.321-.341-.555-.461-.233-.12-.496-.18-.789-.18-.155 0-.313.021-.472.063-.159.042-.303.11-.433.204-.13.094-.235.21-.316.35-.081.139-.122.306-.122.5 0 .188.037.344.112.471.074.126.175.233.302.32s.276.162.448.223l.55.189c.234.071.471.152.711.243s.458.21.652.359c.195.149.354.335.477.558.123.223.185.506.185.85 0 .355-.067.665-.2.927s-.31.479-.53.65c-.221.172-.475.299-.764.383-.289.084-.586.126-.891.126-.435 0-.855-.084-1.261-.252-.406-.169-.742-.418-1.007-.748l.75-.631c.162.24.38.434.652.583.272.149.568.223.886.223.162 0 .324-.023.487-.068.162-.045.31-.117.443-.213.133-.097.241-.218.326-.364.084-.146.126-.322.126-.529 0-.207-.044-.38-.131-.519-.087-.139-.206-.257-.355-.354-.149-.097-.323-.179-.521-.247l-.628-.209c-.221-.064-.438-.144-.652-.238-.214-.093-.406-.213-.574-.359-.169-.146-.305-.325-.409-.539-.104-.213-.155-.479-.155-.795 0-.343.07-.637.209-.883.139-.246.321-.449.545-.611.224-.162.477-.28.759-.354.282-.074.566-.111.852-.111.402 0 .779.071 1.129.213.35.143.632.333.847.573l-.681.66zm-20.027-31.762h-18.631v3.215h15.406v15.359h3.225v-18.575zm0 42.866v-18.575h-3.225v15.359h-15.406v3.215h18.631zm-42.997 0h18.634v-3.215h-15.409v-15.359h-3.225v18.575zm24.364-11.252h7.345v-7.324h-7.345v7.324zm-13.076 0h7.345v-7.324h-7.345v7.324zm13.079-13.039h7.345v-7.324h-7.345v7.324zm-13.079 0h7.345v-7.324h-7.345v7.324zm7.346-18.575v3.215h-15.409v15.359h-3.225v-18.575h18.634z" fill="#00529F">
 </path>
</svg>