<?xml version="1.0" encoding="UTF-8" standalone="no"?>
<!-- Created with Inkscape (http://www.inkscape.org/) -->

<svg
   xmlns:dc="http://purl.org/dc/elements/1.1/"
   xmlns:cc="http://creativecommons.org/ns#"
   xmlns:rdf="http://www.w3.org/1999/02/22-rdf-syntax-ns#"
   xmlns:svg="http://www.w3.org/2000/svg"
   xmlns="http://www.w3.org/2000/svg"
   xmlns:sodipodi="http://sodipodi.sourceforge.net/DTD/sodipodi-0.dtd"
   xmlns:inkscape="http://www.inkscape.org/namespaces/inkscape"
   width="205.42799"
   height="44.46389"
   viewBox="0 0 54.352825 11.764404"
   version="1.1"
   id="svg16404"
   inkscape:version="0.92.0 r15299"
   sodipodi:docname="strategy and.svg">
  <defs
     id="defs16398">
    <clipPath
       id="clipPath15777"
       clipPathUnits="userSpaceOnUse">
      <path
         inkscape:connector-curvature="0"
         id="path15775"
         d="M 42.116,715.2 H 195.44 v 34.684 H 42.116 Z" />
    </clipPath>
  </defs>
  <sodipodi:namedview
     id="base"
     pagecolor="#ffffff"
     bordercolor="#666666"
     borderopacity="1.0"
     inkscape:pageopacity="0.0"
     inkscape:pageshadow="2"
     inkscape:zoom="4.3877591"
     inkscape:cx="146.65363"
     inkscape:cy="11.023918"
     inkscape:document-units="mm"
     inkscape:current-layer="layer1"
     showgrid="false"
     fit-margin-top="0"
     fit-margin-left="0"
     fit-margin-right="0"
     fit-margin-bottom="0"
     units="px"
     inkscape:window-width="1280"
     inkscape:window-height="744"
     inkscape:window-x="-4"
     inkscape:window-y="-4"
     inkscape:window-maximized="1" />
  <metadata
     id="metadata16401">
    <rdf:RDF>
      <cc:Work
         rdf:about="">
        <dc:format>image/svg+xml</dc:format>
        <dc:type
           rdf:resource="http://purl.org/dc/dcmitype/StillImage" />
        <dc:title></dc:title>
      </cc:Work>
    </rdf:RDF>
  </metadata>
  <g
     inkscape:label="Layer 1"
     inkscape:groupmode="layer"
     id="layer1"
     transform="translate(26.328783,-142.20968)">
    <path
       d="m 26.59388,149.45609 1.081264,-0.88971 v -1.98084 l -2.024239,1.65488 -1.219553,-1.57233 c 0.781756,-0.49918 1.496484,-1.06469 1.496484,-2.21262 0,-1.19839 -0.848784,-2.1135 -2.130073,-2.1135 -1.265061,0 -2.280355,0.88195 -2.280355,2.21333 0,0.82162 0.337961,1.34902 0.687564,1.81116 -0.870303,0.51894 -1.61925,1.18428 -1.61925,2.3996 0,1.41464 1.015294,2.49625 2.729441,2.49625 0.981781,0 1.580798,-0.39934 2.013303,-0.76553 l 0.499533,0.63253 h 2.06375 z m -44.302891,-4.185 v -1.71415 h -1.098197 l -0.765528,1.39771 -1.031875,0.66569 v 0.54927 h 0.865364 v 3.59481 c 0,0.98213 0.532695,1.46473 1.614311,1.46473 0.632531,0 1.164873,-0.13335 2.06375,-0.53269 v -0.69921 c 0,0 -0.266347,0.067 -0.549275,0.067 -0.832202,0 -1.09855,-0.23319 -1.09855,-1.04881 v -2.84586 h 1.647825 v -0.89852 z m 17.09208268,0 v -1.71415 H -1.7151252 l -0.7658806,1.39771 -1.0315222,0.66569 v 0.54927 h 0.8653639 v 3.59481 c 0,0.98213 0.5323417,1.46473 1.6143108,1.46473 0.63217798,0 1.16487198,-0.13335 2.130072,-0.53269 v -0.69921 c 0,0 -0.36618302,0.067 -0.61595002,0.067 -0.83185,0 -1.098197,-0.23319 -1.098197,-1.04881 v -2.84586 H 1.0972187 v -0.89852 z M 23.78083,143.85645 c 0.399697,0 0.582436,0.31609 0.582436,0.66569 0,0.49706 -0.313619,0.76341 -0.792691,1.04493 -0.25012,-0.31327 -0.438856,-0.58773 -0.438856,-0.99519 0,-0.4325 0.266347,-0.71543 0.649111,-0.71543 m -47.014693,3.39513 c -0.632531,-0.24976 -0.865364,-0.44944 -0.865364,-0.79904 0,-0.41592 0.34925,-0.68227 0.915105,-0.68227 0.299509,0 0.532695,0.0663 0.898878,0.23318 l 0.166158,0.16616 0.149931,0.94862 h 0.881944 v -1.84714 c -1.148291,-0.24977 -1.664052,-0.31644 -2.330097,-0.31644 -1.630891,0 -2.712508,0.74894 -2.712508,1.89759 0,0.84878 0.565855,1.31445 2.496255,2.13007 0.59937,0.23319 0.782109,0.41628 0.782109,0.76553 0,0.44944 -0.34925,0.71543 -0.9652,0.71543 -0.382764,0 -0.698853,-0.0663 -1.231547,-0.29916 l -0.132998,-0.14993 -0.132997,-1.11513 h -0.882297 v 2.03059 c 1.24848,0.266 1.780822,0.34925 2.596444,0.34925 1.613959,0 2.795764,-0.84878 2.795764,-2.01365 0,-0.89853 -0.466019,-1.28164 -2.42958,-2.01366 m 11.99903,-2.24684 c -0.649111,0.38276 -1.048456,0.71543 -1.630892,1.34796 l 0.116417,-1.39805 h -0.715433 l -2.1971,0.73236 v 0.58244 h 0.882297 v 3.9945 l -0.13335,0.16616 -0.649111,0.0501 v 0.64911 h 3.877733 v -0.64911 l -0.915105,-0.0501 -0.149931,-0.16616 v -3.49497 c 0.149931,-0.0169 0.216253,-0.0169 0.299508,-0.0169 0.582789,0 0.898878,0.2166 1.148292,0.81562 h 0.865717 l 0.34925,-2.34668 c -0.282928,-0.19967 -0.449087,-0.23318 -0.94862,-0.23318 -0.06668,0 -0.09984,0 -0.199672,0.0169 m 7.3727023,5.42537 -0.13335,-0.16616 v -2.72979 c 0,-1.21462 -0.099836,-1.54764 -0.5323417,-1.96356 -0.4494389,-0.41593 -1.165225,-0.61595 -2.0972638,-0.61595 -1.730375,0 -3.1118527,0.66569 -3.1118527,1.51447 0,0.33302 0.1996722,0.48295 0.7320138,0.48295 h 1.4481528 v -1.28164 c 1.0816166,0 1.5310555,0.3496 1.5310555,1.19839 v 0.34925 c -2.0305888,0.44944 -2.9125333,0.6992 -3.2952972,0.98213 -0.4494388,0.33267 -0.715433,0.83185 -0.715433,1.41464 0,0.98178 0.7320136,1.66405 1.7638886,1.66405 0.6491111,0 1.2315472,-0.21625 2.230261,-0.8322 l 0.1661584,0.68262 h 2.6962805 v -0.64911 z m 8.3043884,-5.47546 c -2.063397,0 -3.278364,1.24848 -3.278364,3.17888 0,1.89723 1.181453,3.09562 3.278364,3.09562 1.031875,0 1.747309,-0.19967 2.812697,-0.6992 v -1.11478 c -0.882297,0.46566 -1.431572,0.64911 -2.230261,0.64911 -1.148291,0 -1.713794,-0.63253 -1.797402,-1.94733 h 4.060825 v -0.16652 c 0,-1.88065 -0.998362,-2.99578 -2.845859,-2.99578 m 16.6260643,0.93203 v -0.61559 h -2.579864 v 0.61559 l 0.649464,0.0998 0.116064,0.14993 -1.248128,3.01202 -1.298222,-3.01202 0.100189,-0.14993 0.698852,-0.0998 v -0.61559 h -5.148438 c -0.432859,-0.1778 -0.989542,-0.28328 -1.69157,-0.28328 -1.7808223,0 -2.8793723,0.81562 -2.8793723,2.13042 0,0.93204 0.466372,1.48132 1.58115,1.86408 -0.565503,0.39934 -0.782108,0.71579 -0.782108,1.13171 0,0.21625 0.06668,0.39934 0.216605,0.71543 -0.815622,0.0169 -1.298222,0.46602 -1.298222,1.21497 0,1.09855 1.048456,1.73108 2.8959533,1.73108 2.163233,0 3.727802,-0.94862 3.727802,-2.24684 0,-1.0153 -0.898877,-1.46438 -3.478388,-1.71415 l -0.532695,-0.0501 c -0.03316,-0.14958 -0.04974,-0.24942 -0.04974,-0.36583 0,-0.13335 0.01658,-0.19967 0.04974,-0.36654 0.233186,0.0335 0.382764,0.0335 0.582436,0.0335 1.830917,0 2.929114,-0.74895 2.929114,-2.01366 0,-0.3616 -0.09313,-0.71861 -0.303741,-1.03188 h 1.119363 l 2.579511,5.44195 c -0.232833,0.5327 -0.515761,0.89888 -0.782108,1.08197 l -0.832203,-0.91545 c -0.432505,0.13299 -0.832202,0.68227 -0.832202,1.19838 0,0.6156 0.416277,1.01494 0.998713,1.01494 0.9652,0 1.747309,-0.9652 2.413,-2.46274 l 2.413353,-5.37563 z m -10.318397,2.57987 c -0.515761,0 -0.8322033,-0.54928 -0.8322033,-1.43157 0,-0.81527 0.3330223,-1.34797 0.8491363,-1.34797 0.532342,0 0.848431,0.4826 0.848431,1.26506 0,0.94827 -0.33267,1.51448 -0.865364,1.51448 m -5.5252063,-1.11513 h -1.947333 c 0.03351,-1.14829 0.333022,-1.63125 1.014942,-1.63125 0.649464,0 0.898877,0.43286 0.932391,1.63125 m 19.1808803,1.90676 c -0.258586,0.20673 -0.624769,0.43956 -1.073855,0.43956 -0.532694,0 -0.998714,-0.36583 -0.998714,-0.98178 0,-0.58243 0.266347,-0.86536 0.748947,-1.1818 z m -30.4313158,-1.22449 v 1.81398 c -0.4663722,0.18309 -0.6822722,0.23319 -0.9489722,0.23319 -0.5323417,0 -0.8815917,-0.3496 -0.8815917,-0.86536 0,-0.43286 0.2162528,-0.73237 0.6988528,-0.9324 0.2829278,-0.11641 0.3993444,-0.13299 1.1317111,-0.24941 m 15.6107695,2.99579 1.6975663,0.26599 c 0.549275,0.0836 0.848431,0.31644 0.848431,0.73237 0,0.59902 -0.4826,0.99871 -1.198034,0.99871 -0.832202,0 -1.4647333,-0.56585 -1.4647333,-1.33173 0,-0.19932 0.03351,-0.41593 0.11677,-0.66534"
       style="fill:#000000;fill-opacity:1;fill-rule:nonzero;stroke:none;stroke-width:0.35277778"
       id="path15781"
       inkscape:connector-curvature="0" />
  </g>
</svg>
